<svg width="363" height="388" viewBox="0 0 363 388" fill="none" xmlns="http://www.w3.org/2000/svg">
<path d="M120.798 49.3113C125.043 46.7477 129.619 45.0992 134.524 44.3659C146.495 43.1548 155.437 47.1702 161.351 56.4122C162.468 58.0775 163.274 59.5965 163.769 60.9692L176.465 109.123L187.486 154.779L213.093 116.088C230.914 89.5062 240.428 75.7394 241.636 74.7873C243.137 73.2128 246.175 71.6013 250.75 69.9528C258.858 68.0655 266.107 68.8141 272.496 72.1987C284.651 78.6752 290.044 88.6219 288.675 102.039C288.328 106.816 284.403 113.141 276.901 121.014C274.192 123.54 267.129 130.479 255.71 141.83L222.141 175.637L216.514 181.541L263.683 185.483C297.747 188.202 316.583 190.979 320.189 193.815C320.812 194.108 321.599 194.858 322.551 196.066C332.163 205.527 334.353 216.627 329.121 229.368C326.359 236.05 321.254 241.249 313.805 244.967C309.229 246.615 305.862 247.312 303.702 247.056C302.164 247.093 286.056 242.557 255.376 233.45C226.399 224.763 211.6 220.273 210.977 219.98L231.36 261.488C245.644 292.528 252.704 307.819 252.54 307.361C256.331 317.885 253.56 327.413 244.228 335.945C241.519 338.471 238.335 340.394 234.675 341.713C222.321 346.164 211.878 343.723 203.346 334.39C200.984 332.139 199.309 329.641 198.32 326.896C198.484 327.353 194.17 311.073 185.376 278.055C178.358 248.533 174.767 233.543 174.602 233.086L148.995 271.777C131.174 298.359 121.66 312.126 120.452 313.078C118.951 314.652 115.913 316.264 111.338 317.912C103.23 319.799 95.9813 319.051 89.5924 315.666C77.4371 309.19 72.0442 299.243 73.4136 285.826C73.7602 281.049 77.6847 274.724 85.1873 266.851C87.8956 264.325 94.9591 257.386 106.378 246.035L139.948 212.228L145.574 206.324L98.4047 202.382C64.3408 199.663 45.5055 196.886 41.899 194.05C41.2766 193.757 40.4893 193.007 39.5372 191.799C29.9254 182.338 27.7353 171.238 32.967 158.497C35.7292 151.815 40.8346 146.616 48.2833 142.898C52.8588 141.25 56.2265 140.553 58.3864 140.809C59.9239 140.772 76.0324 145.307 106.712 154.415C135.689 163.102 150.489 167.592 151.111 167.885L130.481 125.69C116.691 96.0235 109.713 80.9613 109.549 80.5037C107.57 75.0131 107.734 69.0094 110.038 62.4927C112.673 56.8911 116.259 52.4973 120.798 49.3113Z" fill="white" fill-opacity="0.03"/>
</svg>
