<svg width="19" height="19" viewBox="0 0 19 19" fill="none" xmlns="http://www.w3.org/2000/svg">
<path d="M14.6026 16.633C15.5453 16.2694 16.2905 15.5255 16.6547 14.5845C16.8272 14.1387 16.9478 13.6302 16.9806 12.8862C16.9884 12.712 16.9944 12.5657 17 12.419V7.44852C16.9961 7.34483 16.9918 7.23683 16.9862 7.1155C16.9534 6.37157 16.8328 5.86041 16.6603 5.41724C16.4823 4.94696 16.2082 4.52572 15.8496 4.17592C15.4987 3.82009 15.0741 3.54386 14.6082 3.36917C14.1616 3.19706 13.6522 3.07659 12.9069 3.04389C12.156 3.00818 11.9177 3 10.0138 3C8.10991 3 7.87112 3.00818 7.12328 3.04088C6.37802 3.07358 5.86595 3.19405 5.42198 3.36616C4.95086 3.54386 4.52888 3.81751 4.17802 4.17592C3.82198 4.52615 3.54526 4.94997 3.36983 5.41465C3.19741 5.86041 3.07672 6.36898 3.04397 7.11292C3.00819 7.86244 3 8.10038 3 10.0013C3 11.9022 3.00819 12.1401 3.04095 12.8867C3.07371 13.6306 3.1944 14.1422 3.36724 14.5849C3.54526 15.0552 3.82198 15.4764 4.17802 15.8267C4.52888 16.1821 4.95345 16.4587 5.4194 16.6334C5.86595 16.8055 6.37543 16.926 7.12069 16.9587C7.86853 16.9918 8.1069 17 10.0112 17C11.9155 17 12.1534 16.9918 12.9017 16.9587C13.647 16.926 14.1586 16.8051 14.6026 16.633ZM10.0164 15.7415C8.14483 15.7415 7.92026 15.7333 7.18319 15.7006C6.49828 15.6705 6.12845 15.5556 5.8819 15.4601C5.57802 15.3478 5.30129 15.1701 5.07629 14.9377C4.84353 14.7106 4.66509 14.4373 4.55302 14.1336C4.45733 13.8875 4.34224 13.5153 4.31207 12.8346C4.27931 12.0963 4.27112 11.8747 4.27112 10.0065C4.27112 8.13824 4.27931 7.91407 4.31207 7.17875C4.34224 6.49505 4.45733 6.12588 4.55302 5.87977C4.66552 5.576 4.84353 5.29977 5.07931 5.0756C5.30647 4.84326 5.5806 4.66556 5.88448 4.55326C6.13103 4.45774 6.50388 4.34286 7.18578 4.31274C7.92543 4.28004 8.14741 4.27187 10.0185 4.27187C11.8897 4.27187 12.1147 4.28004 12.8517 4.31274C13.5366 4.34286 13.9065 4.45774 14.153 4.55326C14.4569 4.66556 14.7336 4.84326 14.9582 5.0756C15.1909 5.30279 15.3694 5.576 15.4815 5.87977C15.5772 6.12588 15.6922 6.49763 15.7224 7.17875C15.7552 7.91708 15.7634 8.13867 15.7634 10.0065C15.7634 11.8742 15.7552 12.0932 15.7224 12.8316C15.6922 13.5153 15.5772 13.8844 15.4815 14.1306C15.2457 14.7407 14.7608 15.2247 14.15 15.4596C13.9034 15.5552 13.531 15.67 12.8487 15.7002C12.1091 15.7329 11.8875 15.7415 10.0164 15.7415Z" fill="white"/>
<path d="M10.0139 6.4043C8.02472 6.4043 6.41092 8.01521 6.41092 10.0009C6.41092 11.9866 8.02472 13.5975 10.0139 13.5975C12.0032 13.5975 13.6165 11.9866 13.6165 10.0009C13.6165 8.01521 12.0027 6.4043 10.0139 6.4043ZM10.0139 12.3334C8.72342 12.3334 7.67687 11.2887 7.67687 10.0005C7.67687 8.71224 8.72342 7.66756 10.0139 7.66756C11.3045 7.66756 12.351 8.71224 12.351 10.0005C12.351 11.2887 11.3045 12.3334 10.0139 12.3334Z" fill="white"/>
<path d="M14.5992 6.2621C14.5992 5.79828 14.2225 5.42266 13.7578 5.42266C13.2932 5.42266 12.9169 5.79871 12.9169 6.2621C12.9169 6.7255 13.2936 7.10155 13.7578 7.10155C14.2221 7.10155 14.5992 6.72593 14.5992 6.2621Z" fill="white"/>
</svg>
