<svg width="19" height="19" viewBox="0 0 19 19" fill="none" xmlns="http://www.w3.org/2000/svg">
<path d="M6.72404 16V7.90314H4.15163V16H6.72404ZM5.43837 6.79785C6.33524 6.79785 6.8936 6.1761 6.8936 5.3991C6.87681 4.60439 6.33524 4 5.45543 4C4.57501 4 4 4.60439 4 5.39903C4 6.17603 4.55816 6.79778 5.42152 6.79778L5.43837 6.79785ZM8.14791 16H10.7201V11.4788C10.7201 11.2372 10.7369 10.9949 10.8049 10.8222C10.9907 10.3386 11.414 9.83785 12.1248 9.83785C13.0554 9.83785 13.4279 10.5803 13.4279 11.6689V16H16V11.3575C16 8.8706 14.7311 7.71332 13.0387 7.71332C11.6512 7.71332 11.0418 8.52468 10.7032 9.07729H10.7203V7.90342H8.14805C8.18162 8.66301 8.14791 16 8.14791 16Z" fill="white"/>
</svg>
