<svg width="166" height="38" viewBox="0 0 166 38" fill="none" xmlns="http://www.w3.org/2000/svg">
<g clip-path="url(#clip0_15_1893)">
<path d="M51.2242 32.0756V9.90967H55.6943V32.0756H51.2242ZM54.511 32.0756V28.292H67.2968V32.0756H54.511ZM54.511 22.5849V18.9274H66.1464V22.5849H54.511ZM54.511 13.6934V9.90967H67.1325V13.6934H54.511ZM68.7616 29.7108L77.1758 19.2112H82.369L73.9547 29.7108H68.7616ZM68.7616 32.0756V29.7108L72.1798 28.4811H82.1718V32.0756H68.7616ZM69.3532 20.4409V16.8465H82.369V19.2112L78.9179 20.4409H69.3532ZM84.9925 32.0756V9.90967H89.4626V32.0756H84.9925ZM88.2793 32.0756V28.2605H100.046V32.0756H88.2793ZM109.314 32.391C107.649 32.391 106.17 32.0546 104.877 31.382C103.584 30.6883 102.554 29.7423 101.787 28.5442C101.042 27.346 100.67 25.9798 100.67 24.4452C100.67 22.9318 101.031 21.5865 101.754 20.4094C102.499 19.2112 103.507 18.2653 104.778 17.5716C106.049 16.8569 107.462 16.4996 109.018 16.4996C110.552 16.4996 111.9 16.836 113.061 17.5086C114.244 18.1602 115.165 19.0641 115.822 20.2201C116.501 21.3552 116.841 22.648 116.841 24.0984C116.841 24.3717 116.819 24.6554 116.775 24.9497C116.753 25.223 116.699 25.5383 116.611 25.8957L103.266 25.9272V22.8372L114.606 22.8057L112.864 24.0984C112.82 23.1946 112.645 22.4378 112.338 21.8282C112.053 21.2187 111.626 20.7561 111.056 20.4409C110.508 20.1046 109.829 19.9364 109.018 19.9364C108.164 19.9364 107.419 20.1255 106.783 20.504C106.148 20.8613 105.655 21.3763 105.304 22.0489C104.975 22.7005 104.811 23.4783 104.811 24.3822C104.811 25.3071 104.986 26.1163 105.337 26.81C105.71 27.4827 106.235 28.0082 106.915 28.3866C107.594 28.7439 108.383 28.9226 109.281 28.9226C110.092 28.9226 110.826 28.7965 111.483 28.5442C112.141 28.2709 112.71 27.8716 113.192 27.346L115.723 29.7739C114.957 30.6357 114.014 31.2874 112.897 31.7287C111.801 32.1702 110.607 32.391 109.314 32.391ZM125.486 32.391C124.04 32.391 122.735 32.0441 121.575 31.3505C120.413 30.6568 119.505 29.7108 118.846 28.5127C118.188 27.3145 117.86 25.9692 117.86 24.4767C117.86 22.9633 118.188 21.6076 118.846 20.4094C119.505 19.2112 120.413 18.2653 121.575 17.5716C122.735 16.878 124.04 16.5311 125.486 16.5311C126.625 16.5311 127.644 16.7519 128.543 17.1932C129.441 17.6347 130.154 18.2548 130.679 19.0536C131.227 19.8312 131.523 20.7142 131.567 21.7021V27.1884C131.523 28.1974 131.227 29.0907 130.679 29.8684C130.154 30.6462 129.441 31.2663 128.543 31.7287C127.644 32.1702 126.625 32.391 125.486 32.391ZM126.274 28.5757C127.48 28.5757 128.455 28.1974 129.2 27.4406C129.944 26.6628 130.318 25.6644 130.318 24.4452C130.318 23.6465 130.142 22.9423 129.792 22.3327C129.463 21.7021 128.992 21.2187 128.378 20.8824C127.787 20.525 127.086 20.3464 126.274 20.3464C125.486 20.3464 124.784 20.525 124.17 20.8824C123.58 21.2187 123.109 21.7021 122.757 22.3327C122.428 22.9423 122.264 23.6465 122.264 24.4452C122.264 25.2651 122.428 25.9903 122.757 26.6209C123.109 27.2304 123.58 27.7138 124.17 28.0712C124.784 28.4076 125.486 28.5757 126.274 28.5757ZM130.087 32.0756V27.9766L130.777 24.2561L130.087 20.5985V16.8465H134.36V32.0756H130.087ZM137.512 32.0756V16.8465H141.817V32.0756H137.512ZM141.817 23.657L140.141 22.5849C140.339 20.7142 140.909 19.2428 141.851 18.1707C142.793 17.0777 144.151 16.5311 145.926 16.5311C146.693 16.5311 147.383 16.6573 147.997 16.9095C148.61 17.1408 149.169 17.5296 149.673 18.0761L146.978 21.04C146.738 20.7877 146.441 20.5985 146.091 20.4725C145.762 20.3464 145.378 20.2833 144.941 20.2833C144.02 20.2833 143.264 20.567 142.672 21.1346C142.102 21.6811 141.817 22.5219 141.817 23.657ZM161.146 32.0756V23.3418C161.146 22.4377 160.851 21.7021 160.259 21.1346C159.667 20.567 158.901 20.2833 157.959 20.2833C157.345 20.2833 156.797 20.4094 156.314 20.6616C155.833 20.9139 155.449 21.2713 155.164 21.7337C154.901 22.196 154.77 22.7321 154.77 23.3418L153.093 22.5219C153.093 21.3237 153.357 20.2833 153.883 19.4004C154.43 18.4965 155.176 17.7923 156.118 17.2879C157.082 16.7834 158.167 16.5311 159.372 16.5311C160.532 16.5311 161.573 16.8149 162.494 17.3825C163.414 17.929 164.137 18.6541 164.663 19.558C165.189 20.4409 165.453 21.3974 165.453 22.4273V32.0756H161.146ZM150.465 32.0756V16.8465H154.77V32.0756H150.465Z" fill="white"/>
<path d="M0.457153 13.1017L21.541 0.0710449V13.1017H43.1247L21.541 25.9725L0.457153 13.1017Z" fill="#00685E"/>
<path d="M0.457153 13.1017L21.541 0.0710449V13.1017H0.457153Z" fill="#00FFC5"/>
<path d="M12.1651 23.9547L7.73291 21.3906V29.8196L21.7819 37.9931L35.7007 29.8196V21.3906L31.5287 23.9547V27.3817L21.7819 32.7106L12.1651 27.3817V23.9547Z" fill="white"/>
</g>
<defs>
<clipPath id="clip0_15_1893">
<rect width="165" height="38" fill="white" transform="translate(0.5)"/>
</clipPath>
</defs>
</svg>
