<svg width="19" height="20" viewBox="0 0 19 20" fill="none" xmlns="http://www.w3.org/2000/svg">
<path d="M14.6026 16.8752C15.5453 16.5116 16.2905 15.7677 16.6547 14.8267C16.8272 14.3809 16.9478 13.8723 16.9806 13.1284C16.9884 12.9542 16.9944 12.8079 17 12.6611V7.69071C16.9961 7.58702 16.9918 7.47902 16.9862 7.35768C16.9534 6.61375 16.8328 6.1026 16.6603 5.65942C16.4823 5.18914 16.2082 4.76791 15.8496 4.41811C15.4987 4.06228 15.0741 3.78604 14.6082 3.61136C14.1616 3.43925 13.6522 3.31878 12.9069 3.28608C12.156 3.25036 11.9177 3.24219 10.0138 3.24219C8.10991 3.24219 7.87112 3.25036 7.12328 3.28306C6.37802 3.31576 5.86595 3.43624 5.42198 3.60834C4.95086 3.78604 4.52888 4.05969 4.17802 4.41811C3.82198 4.76834 3.54526 5.19215 3.36983 5.65684C3.19741 6.1026 3.07672 6.61117 3.04397 7.3551C3.00819 8.10463 3 8.34256 3 10.2435C3 12.1444 3.00819 12.3823 3.04095 13.1288C3.07371 13.8728 3.1944 14.3844 3.36724 14.8271C3.54526 15.2974 3.82198 15.7186 4.17802 16.0689C4.52888 16.4243 4.95345 16.7009 5.4194 16.8756C5.86595 17.0477 6.37543 17.1682 7.12069 17.2009C7.86853 17.234 8.1069 17.2422 10.0112 17.2422C11.9155 17.2422 12.1534 17.234 12.9017 17.2009C13.647 17.1682 14.1586 17.0473 14.6026 16.8752ZM10.0164 15.9837C8.14483 15.9837 7.92026 15.9755 7.18319 15.9428C6.49828 15.9127 6.12845 15.7978 5.8819 15.7023C5.57802 15.59 5.30129 15.4123 5.07629 15.1799C4.84353 14.9527 4.66509 14.6795 4.55302 14.3758C4.45733 14.1296 4.34224 13.7575 4.31207 13.0768C4.27931 12.3384 4.27112 12.1169 4.27112 10.2486C4.27112 8.38043 4.27931 8.15626 4.31207 7.42093C4.34224 6.73724 4.45733 6.36807 4.55302 6.12196C4.66552 5.81819 4.84353 5.54196 5.07931 5.31779C5.30647 5.08545 5.5806 4.90775 5.88448 4.79545C6.13103 4.69993 6.50388 4.58505 7.18578 4.55493C7.92543 4.52223 8.14741 4.51406 10.0185 4.51406C11.8897 4.51406 12.1147 4.52223 12.8517 4.55493C13.5366 4.58505 13.9065 4.69993 14.153 4.79545C14.4569 4.90775 14.7336 5.08545 14.9582 5.31779C15.1909 5.54497 15.3694 5.81819 15.4815 6.12196C15.5772 6.36807 15.6922 6.73982 15.7224 7.42093C15.7552 8.15927 15.7634 8.38086 15.7634 10.2486C15.7634 12.1164 15.7552 12.3354 15.7224 13.0738C15.6922 13.7575 15.5772 14.1266 15.4815 14.3727C15.2457 14.9829 14.7608 15.4669 14.15 15.7018C13.9034 15.7974 13.531 15.9122 12.8487 15.9424C12.1091 15.9751 11.8875 15.9837 10.0164 15.9837Z" fill="white"/>
<path d="M10.0139 6.64648C8.02472 6.64648 6.41092 8.2574 6.41092 10.2431C6.41092 12.2288 8.02472 13.8397 10.0139 13.8397C12.0032 13.8397 13.6165 12.2288 13.6165 10.2431C13.6165 8.2574 12.0027 6.64648 10.0139 6.64648ZM10.0139 12.5756C8.72342 12.5756 7.67687 11.5309 7.67687 10.2426C7.67687 8.95443 8.72342 7.90975 10.0139 7.90975C11.3045 7.90975 12.351 8.95443 12.351 10.2426C12.351 11.5309 11.3045 12.5756 10.0139 12.5756Z" fill="white"/>
<path d="M14.5992 6.50429C14.5992 6.04047 14.2225 5.66484 13.7578 5.66484C13.2932 5.66484 12.9169 6.0409 12.9169 6.50429C12.9169 6.96769 13.2936 7.34374 13.7578 7.34374C14.2221 7.34374 14.5992 6.96812 14.5992 6.50429Z" fill="white"/>
</svg>
