<svg width="19" height="20" viewBox="0 0 19 20" fill="none" xmlns="http://www.w3.org/2000/svg">
<path d="M6.72404 16.2422V8.14533H4.15163V16.2422H6.72404ZM5.43837 7.04003C6.33524 7.04003 6.8936 6.41829 6.8936 5.64129C6.87681 4.84658 6.33524 4.24219 5.45543 4.24219C4.57501 4.24219 4 4.84658 4 5.64122C4 6.41822 4.55816 7.03996 5.42152 7.03996L5.43837 7.04003ZM8.14791 16.2422H10.7201V11.721C10.7201 11.4794 10.7369 11.237 10.8049 11.0644C10.9907 10.5807 11.414 10.08 12.1248 10.08C13.0554 10.08 13.4279 10.8225 13.4279 11.9111V16.2422H16V11.5997C16 9.11279 14.7311 7.95551 13.0387 7.95551C11.6512 7.95551 11.0418 8.76686 10.7032 9.31948H10.7203V8.14561H8.14805C8.18162 8.90519 8.14791 16.2422 8.14791 16.2422Z" fill="white"/>
</svg>
