<svg width="166" height="39" viewBox="0 0 166 39" fill="none" xmlns="http://www.w3.org/2000/svg">
<g clip-path="url(#clip0_15_366)">
<path d="M51.2242 32.3173V10.1514H55.6943V32.3173H51.2242ZM54.511 32.3173V28.5337H67.2968V32.3173H54.511ZM54.511 22.8266V19.1691H66.1464V22.8266H54.511ZM54.511 13.9351V10.1514H67.1325V13.9351H54.511ZM68.7615 29.9525L77.1758 19.4529H82.369L73.9547 29.9525H68.7615ZM68.7615 32.3173V29.9525L72.1798 28.7228H82.1718V32.3173H68.7615ZM69.3532 20.6826V17.0882H82.369V19.4529L78.9179 20.6826H69.3532ZM84.9925 32.3173V10.1514H89.4626V32.3173H84.9925ZM88.2793 32.3173V28.5022H100.046V32.3173H88.2793ZM109.314 32.6327C107.649 32.6327 106.17 32.2963 104.877 31.6237C103.584 30.93 102.554 29.984 101.787 28.7859C101.042 27.5877 100.67 26.2215 100.67 24.6869C100.67 23.1735 101.031 21.8282 101.754 20.6511C102.499 19.4529 103.507 18.507 104.778 17.8133C106.049 17.0986 107.462 16.7413 109.018 16.7413C110.552 16.7413 111.9 17.0777 113.061 17.7503C114.244 18.4019 115.165 19.3058 115.822 20.4618C116.501 21.5969 116.841 22.8897 116.841 24.3401C116.841 24.6134 116.819 24.8971 116.775 25.1914C116.753 25.4647 116.699 25.78 116.611 26.1374L103.266 26.1689V23.0789L114.606 23.0474L112.864 24.3401C112.82 23.4363 112.645 22.6795 112.338 22.0699C112.053 21.4604 111.626 20.9978 111.056 20.6826C110.508 20.3463 109.829 20.1781 109.018 20.1781C108.164 20.1781 107.419 20.3672 106.783 20.7457C106.148 21.103 105.655 21.618 105.304 22.2906C104.975 22.9422 104.811 23.72 104.811 24.6239C104.811 25.5488 104.986 26.358 105.337 27.0517C105.71 27.7244 106.235 28.2499 106.915 28.6283C107.594 28.9856 108.383 29.1643 109.281 29.1643C110.092 29.1643 110.826 29.0382 111.483 28.7859C112.141 28.5126 112.71 28.1133 113.192 27.5877L115.723 30.0156C114.956 30.8774 114.014 31.5291 112.897 31.9704C111.801 32.4119 110.607 32.6327 109.314 32.6327ZM125.486 32.6327C124.04 32.6327 122.735 32.2858 121.575 31.5922C120.413 30.8985 119.505 29.9525 118.846 28.7544C118.188 27.5562 117.86 26.2109 117.86 24.7184C117.86 23.205 118.188 21.8493 118.846 20.6511C119.505 19.4529 120.413 18.507 121.575 17.8133C122.735 17.1197 124.04 16.7728 125.486 16.7728C126.625 16.7728 127.644 16.9936 128.543 17.4349C129.441 17.8764 130.154 18.4965 130.678 19.2953C131.227 20.0729 131.523 20.9559 131.567 21.9438V27.4301C131.523 28.4391 131.227 29.3324 130.678 30.1101C130.154 30.8879 129.441 31.508 128.543 31.9704C127.644 32.4119 126.625 32.6327 125.486 32.6327ZM126.274 28.8174C127.48 28.8174 128.455 28.4391 129.2 27.6823C129.944 26.9045 130.318 25.9061 130.318 24.6869C130.318 23.8882 130.142 23.184 129.792 22.5744C129.463 21.9438 128.992 21.4604 128.378 21.1241C127.787 20.7667 127.086 20.5881 126.274 20.5881C125.486 20.5881 124.784 20.7667 124.17 21.1241C123.58 21.4604 123.109 21.9438 122.757 22.5744C122.428 23.184 122.264 23.8882 122.264 24.6869C122.264 25.5068 122.428 26.232 122.757 26.8626C123.109 27.4721 123.58 27.9555 124.17 28.3129C124.784 28.6493 125.486 28.8174 126.274 28.8174ZM130.087 32.3173V28.2183L130.777 24.4978L130.087 20.8402V17.0882H134.36V32.3173H130.087ZM137.512 32.3173V17.0882H141.817V32.3173H137.512ZM141.817 23.8987L140.141 22.8266C140.339 20.9559 140.909 19.4845 141.851 18.4124C142.793 17.3194 144.151 16.7728 145.926 16.7728C146.693 16.7728 147.383 16.899 147.997 17.1512C148.61 17.3825 149.169 17.7713 149.673 18.3178L146.978 21.2817C146.738 21.0294 146.441 20.8402 146.091 20.7142C145.762 20.5881 145.378 20.525 144.941 20.525C144.02 20.525 143.264 20.8087 142.672 21.3763C142.102 21.9228 141.817 22.7636 141.817 23.8987ZM161.146 32.3173V23.5835C161.146 22.6794 160.851 21.9438 160.259 21.3763C159.667 20.8087 158.901 20.525 157.959 20.525C157.345 20.525 156.797 20.6511 156.314 20.9033C155.833 21.1556 155.449 21.513 155.164 21.9754C154.901 22.4377 154.77 22.9738 154.77 23.5835L153.093 22.7636C153.093 21.5654 153.357 20.525 153.883 19.6421C154.43 18.7382 155.176 18.034 156.118 17.5296C157.082 17.0251 158.167 16.7728 159.372 16.7728C160.532 16.7728 161.573 17.0566 162.494 17.6242C163.414 18.1707 164.137 18.8958 164.663 19.7997C165.189 20.6826 165.453 21.6391 165.453 22.669V32.3173H161.146ZM150.465 32.3173V17.0882H154.77V32.3173H150.465Z" fill="white"/>
<path d="M0.457108 13.3437L21.5409 0.312988V13.3437H43.1247L21.5409 26.2145L0.457108 13.3437Z" fill="#00685E"/>
<path d="M0.457108 13.3437L21.5409 0.312988V13.3437H0.457108Z" fill="#00FFC5"/>
<path d="M12.165 24.1964L7.73283 21.6323V30.0613L21.7818 38.2348L35.7006 30.0613V21.6323L31.5286 24.1964V27.6234L21.7818 32.9523L12.165 27.6234V24.1964Z" fill="white"/>
</g>
<defs>
<clipPath id="clip0_15_366">
<rect width="165" height="38" fill="white" transform="translate(0.499985 0.241943)"/>
</clipPath>
</defs>
</svg>
